<svg width="12" height="12" viewBox="0 0 12 12" fill="none" xmlns="http://www.w3.org/2000/svg">
<path d="M5.64477 0.305542C4.18313 0.305542 3.99985 0.311744 3.42581 0.337939C2.85298 0.36407 2.46174 0.455037 2.1194 0.588092C1.76549 0.725625 1.46535 0.909661 1.16617 1.20886C0.866968 1.50804 0.682933 1.80819 0.5454 2.16209C0.412345 2.50441 0.321378 2.89565 0.295246 3.46848C0.269052 4.04252 0.262871 4.2258 0.262871 5.68745C0.262871 7.14905 0.269052 7.33233 0.295246 7.90637C0.321378 8.4792 0.412345 8.87044 0.5454 9.21276C0.682933 9.56666 0.866968 9.86681 1.16617 10.166C1.46535 10.4652 1.76549 10.6492 2.1194 10.7868C2.46174 10.9198 2.85298 11.0108 3.42581 11.0369C3.99985 11.0631 4.18313 11.0693 5.64477 11.0693C7.10638 11.0693 7.28966 11.0631 7.8637 11.0369C8.43653 11.0108 8.82777 10.9198 9.17009 10.7868C9.52399 10.6492 9.82414 10.4652 10.1234 10.166C10.4225 9.86681 10.6066 9.56666 10.7441 9.21276C10.8771 8.87044 10.9681 8.4792 10.9943 7.90637C11.0204 7.33233 11.0266 7.14905 11.0266 5.68745C11.0266 4.2258 11.0204 4.04252 10.9943 3.46848C10.9681 2.89565 10.8771 2.50441 10.7441 2.16209C10.6066 1.80819 10.4225 1.50804 10.1234 1.20886C9.82414 0.909661 9.52399 0.725625 9.17009 0.588092C8.82777 0.455037 8.43653 0.36407 7.8637 0.337939C7.28966 0.311744 7.10638 0.305542 5.64477 0.305542V0.305542ZM5.64477 1.27527C7.08178 1.27527 7.25201 1.28074 7.81951 1.30664C8.34422 1.33058 8.62919 1.41825 8.81884 1.49194C9.07004 1.58957 9.24933 1.7062 9.43765 1.89453C9.626 2.08285 9.74261 2.26216 9.84024 2.51334C9.91395 2.70299 10.0016 2.98796 10.0256 3.51267C10.0514 4.08019 10.0569 4.25041 10.0569 5.68745C10.0569 7.12446 10.0514 7.29468 10.0256 7.86218C10.0016 8.38689 9.91395 8.67186 9.84024 8.86151C9.74261 9.11271 9.626 9.292 9.43765 9.48032C9.24933 9.66867 9.07004 9.78528 8.81884 9.88291C8.62919 9.95662 8.34422 10.0443 7.81951 10.0682C7.25209 10.0941 7.08189 10.0996 5.64477 10.0996C4.20762 10.0996 4.03746 10.0941 3.47 10.0682C2.94529 10.0443 2.66032 9.95662 2.47067 9.88291C2.21947 9.78528 2.04018 9.66867 1.85184 9.48032C1.66351 9.292 1.54688 9.11271 1.44927 8.86151C1.37556 8.67186 1.28789 8.38689 1.26395 7.86218C1.23805 7.29468 1.23258 7.12446 1.23258 5.68745C1.23258 4.25041 1.23805 4.08019 1.26395 3.51267C1.28789 2.98796 1.37556 2.70299 1.44927 2.51334C1.54688 2.26216 1.66351 2.08285 1.85184 1.89453C2.04018 1.7062 2.21947 1.58957 2.47067 1.49194C2.66032 1.41825 2.94529 1.33058 3.47 1.30664C4.03752 1.28074 4.20774 1.27527 5.64477 1.27527Z" fill="url(#paint0_linear_106_40)"/>
<defs>
<linearGradient id="paint0_linear_106_40" x1="6.58682" y1="-0.264778" x2="3.44139" y2="10.1269" gradientUnits="userSpaceOnUse">
<stop stop-color="#CACEF6"/>
<stop offset="0.26" stop-color="white"/>
<stop offset="0.66" stop-color="white"/>
<stop offset="1" stop-color="#F9EBC7"/>
</linearGradient>
</defs>
</svg>
