<svg width="338" height="44" viewBox="0 0 338 44" fill="none" xmlns="http://www.w3.org/2000/svg">
<path d="M0.84375 0.59375L30.2812 30.875V2.1875H35.7188V43.8438L6.28125 13.7188V42H0.84375V0.59375ZM43.4062 2.1875H65.4688V7.625H48.7812V17.5625H65.4688V22.9375H48.7812V36.625H65.4688V42H43.4062V2.1875ZM99.6875 0.65625L112.5 30.0312L124.531 2.25H130.156L112.5 43.2188L99.6875 13.7812L86.875 43.2188L69.2188 2.25H74.8438L86.9375 30.2812L99.6875 0.65625ZM177.906 6.59375L173.5 10.125C172.333 8.91667 171.271 8.02083 170.312 7.4375C169.375 6.83333 168.01 6.53125 166.219 6.53125C164.26 6.53125 162.667 6.97917 161.438 7.875C160.229 8.75 159.625 9.88542 159.625 11.2812C159.625 12.4896 160.156 13.5625 161.219 14.5C162.281 15.4167 164.094 16.4271 166.656 17.5312C169.219 18.6146 171.208 19.6354 172.625 20.5938C174.062 21.5312 175.24 22.5729 176.156 23.7188C177.073 24.8646 177.75 26.0729 178.188 27.3438C178.646 28.6146 178.875 29.9583 178.875 31.375C178.875 34.6875 177.667 37.5104 175.25 39.8438C172.854 42.1771 169.948 43.3438 166.531 43.3438C163.198 43.3438 160.25 42.4375 157.688 40.625C155.146 38.7917 153.188 36.0521 151.812 32.4062L157.25 30.875C159.229 35.3542 162.26 37.5938 166.344 37.5938C168.323 37.5938 169.969 37 171.281 35.8125C172.594 34.625 173.25 33.125 173.25 31.3125C173.25 30.2292 172.906 29.1458 172.219 28.0625C171.531 26.9583 170.677 26.0521 169.656 25.3438C168.635 24.6354 167 23.8333 164.75 22.9375C162.521 22.0208 160.802 21.1875 159.594 20.4375C158.406 19.6667 157.375 18.7604 156.5 17.7188C155.625 16.6562 154.979 15.6042 154.562 14.5625C154.167 13.5208 153.969 12.4062 153.969 11.2188C153.969 8.36458 155.115 5.9375 157.406 3.9375C159.698 1.91667 162.479 0.90625 165.75 0.90625C167.917 0.90625 170.115 1.375 172.344 2.3125C174.573 3.25 176.427 4.67708 177.906 6.59375ZM185.531 2.1875H190.906V42H185.531V2.1875ZM199.344 0.59375L228.781 30.875V2.1875H234.219V43.8438L204.781 13.7188V42H199.344V0.59375ZM280.812 8.53125L276.781 12.5C272.719 8.52083 268.021 6.53125 262.688 6.53125C258.021 6.53125 254.135 8.03125 251.031 11.0312C247.927 14.0312 246.375 17.7812 246.375 22.2812C246.375 26.2188 247.875 29.7708 250.875 32.9375C253.896 36.0833 258.052 37.6562 263.344 37.6562C271.281 37.6562 276.271 34.1979 278.312 27.2812H267.562V21.8438H284.531C284.531 24.5729 284.344 26.75 283.969 28.375C283.615 30 282.865 31.7917 281.719 33.75C280.573 35.7083 279.042 37.4688 277.125 39.0312C275.229 40.5729 273.188 41.6771 271 42.3438C268.833 43.0104 266.24 43.3438 263.219 43.3438C256.344 43.3438 250.854 41.1875 246.75 36.875C242.667 32.5417 240.625 27.5938 240.625 22.0312C240.625 16.1771 242.719 11.1979 246.906 7.09375C251.094 2.96875 256.167 0.90625 262.125 0.90625C265.667 0.90625 268.896 1.44792 271.812 2.53125C274.75 3.59375 277.75 5.59375 280.812 8.53125ZM292.5 2.1875H297.875V36.625H310.844V42H292.5V2.1875ZM315.906 2.1875H337.969V7.625H321.281V17.5625H337.969V22.9375H321.281V36.625H337.969V42H315.906V2.1875Z" fill="white"/>
</svg>
