<svg width="346" height="13" viewBox="0 0 346 13" fill="none" xmlns="http://www.w3.org/2000/svg">
<path d="M0.703125 6.33105C0.703125 4.71387 1.3125 3.32812 2.53125 2.17383C3.75 1.01953 5.21484 0.442383 6.92578 0.442383C8.5957 0.442383 10.0342 1.02539 11.2412 2.19141C12.4482 3.35156 13.0518 4.73145 13.0518 6.33105C13.0518 8.02441 12.4541 9.45703 11.2588 10.6289C10.0693 11.7949 8.60742 12.3779 6.87305 12.3779C5.16211 12.3779 3.70605 11.7891 2.50488 10.6113C1.30371 9.43359 0.703125 8.00684 0.703125 6.33105ZM11.4258 6.40137C11.4258 5.16504 10.9805 4.125 10.0898 3.28125C9.19922 2.43164 8.10352 2.00684 6.80273 2.00684C5.56641 2.00684 4.50586 2.4375 3.62109 3.29883C2.74219 4.16016 2.30273 5.19434 2.30273 6.40137C2.30273 7.62598 2.75391 8.66309 3.65625 9.5127C4.56445 10.3564 5.6748 10.7783 6.9873 10.7783C8.19434 10.7783 9.23438 10.3477 10.1074 9.48633C10.9863 8.61914 11.4258 7.59082 11.4258 6.40137ZM19.8629 0.820312H21.3922V7.70215C21.3922 8.72168 21.6354 9.50977 22.1217 10.0664C22.6139 10.623 23.3082 10.9014 24.2047 10.9014C25.0954 10.9014 25.7868 10.6465 26.2789 10.1367C26.777 9.62109 27.026 8.89746 27.026 7.96582V0.820312H28.5553V7.86035C28.5553 9.23145 28.1627 10.3271 27.3776 11.1475C26.5983 11.9678 25.5582 12.3779 24.2575 12.3779C22.9274 12.3779 21.861 11.9619 21.0582 11.1299C20.2614 10.2979 19.8629 9.07031 19.8629 7.44727V0.820312ZM34.971 0.802734H41.8177V2.33203H39.1458V12H37.6341V2.33203H34.971V0.802734ZM58.1558 0.354492L66.4351 8.87109V0.802734H67.9644V12.5186L59.6851 4.0459V12H58.1558V0.354492ZM74.6438 6.33105C74.6438 4.71387 75.2531 3.32812 76.4719 2.17383C77.6906 1.01953 79.1555 0.442383 80.8664 0.442383C82.5363 0.442383 83.9748 1.02539 85.1818 2.19141C86.3889 3.35156 86.9924 4.73145 86.9924 6.33105C86.9924 8.02441 86.3947 9.45703 85.1994 10.6289C84.01 11.7949 82.548 12.3779 80.8137 12.3779C79.1027 12.3779 77.6467 11.7891 76.4455 10.6113C75.2443 9.43359 74.6438 8.00684 74.6438 6.33105ZM85.3664 6.40137C85.3664 5.16504 84.9211 4.125 84.0305 3.28125C83.1398 2.43164 82.0441 2.00684 80.7434 2.00684C79.507 2.00684 78.4465 2.4375 77.5617 3.29883C76.6828 4.16016 76.2434 5.19434 76.2434 6.40137C76.2434 7.62598 76.6945 8.66309 77.5969 9.5127C78.5051 10.3564 79.6154 10.7783 80.9279 10.7783C82.135 10.7783 83.175 10.3477 84.048 9.48633C84.927 8.61914 85.3664 7.59082 85.3664 6.40137ZM101.301 0.37207L104.904 8.63379L108.288 0.820312H109.87L104.904 12.3428L101.301 4.06348L97.6971 12.3428L92.7313 0.820312H94.3133L97.7147 8.7041L101.301 0.37207ZM125.716 6.33105C125.716 4.71387 126.325 3.32812 127.544 2.17383C128.763 1.01953 130.228 0.442383 131.939 0.442383C133.609 0.442383 135.047 1.02539 136.254 2.19141C137.461 3.35156 138.065 4.73145 138.065 6.33105C138.065 8.02441 137.467 9.45703 136.272 10.6289C135.082 11.7949 133.62 12.3779 131.886 12.3779C130.175 12.3779 128.719 11.7891 127.518 10.6113C126.317 9.43359 125.716 8.00684 125.716 6.33105ZM136.439 6.40137C136.439 5.16504 135.993 4.125 135.103 3.28125C134.212 2.43164 133.116 2.00684 131.816 2.00684C130.579 2.00684 129.519 2.4375 128.634 3.29883C127.755 4.16016 127.316 5.19434 127.316 6.40137C127.316 7.62598 127.767 8.66309 128.669 9.5127C129.577 10.3564 130.688 10.7783 132 10.7783C133.207 10.7783 134.247 10.3477 135.12 9.48633C135.999 8.61914 136.439 7.59082 136.439 6.40137ZM144.841 0.354492L153.12 8.87109V0.802734H154.649V12.5186L146.37 4.0459V12H144.841V0.354492ZM175.804 0.37207L181.095 12H179.495L178.186 9.13477H173.431L172.156 12H170.565L175.804 0.37207ZM175.804 3.87891L174.002 7.86035H177.606L175.804 3.87891ZM187.59 0.802734H189.101V10.4883H192.749V12H187.59V0.802734ZM199.375 0.802734H200.887V10.4883H204.535V12H199.375V0.802734ZM221.136 0.802734H223.386C224.658 0.802734 225.683 1.10156 226.463 1.69922C227.242 2.29688 227.631 3.07324 227.631 4.02832C227.631 4.98926 227.218 5.79492 226.392 6.44531C225.572 7.0957 224.324 7.41211 222.648 7.39453V12H221.136V0.802734ZM222.648 2.13867V6.05859C223.796 6.04688 224.646 5.88574 225.197 5.5752C225.754 5.25879 226.032 4.75488 226.032 4.06348C226.032 3.54199 225.821 3.09082 225.399 2.70996C224.983 2.3291 224.066 2.13867 222.648 2.13867ZM234.856 0.802734H236.367V10.4883H240.015V12H234.856V0.802734ZM250.597 0.37207L255.888 12H254.288L252.978 9.13477H248.224L246.949 12H245.358L250.597 0.37207ZM250.597 3.87891L248.795 7.86035H252.398L250.597 3.87891ZM260.581 0.802734H267.427V2.33203H264.755V12H263.244V2.33203H260.581V0.802734ZM273.896 0.802734H280.101V2.33203H275.407V5.12695H280.101V6.63867H275.425V12H273.896V0.802734ZM286.305 6.33105C286.305 4.71387 286.915 3.32812 288.134 2.17383C289.352 1.01953 290.817 0.442383 292.528 0.442383C294.198 0.442383 295.637 1.02539 296.844 2.19141C298.051 3.35156 298.654 4.73145 298.654 6.33105C298.654 8.02441 298.056 9.45703 296.861 10.6289C295.672 11.7949 294.21 12.3779 292.475 12.3779C290.764 12.3779 289.308 11.7891 288.107 10.6113C286.906 9.43359 286.305 8.00684 286.305 6.33105ZM297.028 6.40137C297.028 5.16504 296.583 4.125 295.692 3.28125C294.802 2.43164 293.706 2.00684 292.405 2.00684C291.169 2.00684 290.108 2.4375 289.223 3.29883C288.345 4.16016 287.905 5.19434 287.905 6.40137C287.905 7.62598 288.356 8.66309 289.259 9.5127C290.167 10.3564 291.277 10.7783 292.59 10.7783C293.797 10.7783 294.837 10.3477 295.71 9.48633C296.589 8.61914 297.028 7.59082 297.028 6.40137ZM305.755 0.802734H308.181C309.388 0.802734 310.37 1.10449 311.125 1.70801C311.887 2.30566 312.268 3.07324 312.268 4.01074C312.268 4.76074 312.022 5.42285 311.53 5.99707C311.038 6.57129 310.27 6.97559 309.227 7.20996L312.488 12H310.739L307.627 7.39453H307.285V12H305.755V0.802734ZM307.285 2.15625V6.05859C309.54 6.10547 310.668 5.45215 310.668 4.09863C310.668 3.62402 310.537 3.2373 310.273 2.93848C310.009 2.63379 309.658 2.42871 309.218 2.32324C308.779 2.21191 308.134 2.15625 307.285 2.15625ZM328.615 0.336914L331.674 12H330.18L328.325 4.87207L325.135 12.4307L321.936 4.81934L320.064 12H318.569L321.628 0.336914L325.135 8.68652L328.615 0.336914ZM344.963 2.04199L343.723 3.03516C343.395 2.69531 343.096 2.44336 342.827 2.2793C342.563 2.10938 342.179 2.02441 341.676 2.02441C341.125 2.02441 340.676 2.15039 340.331 2.40234C339.991 2.64844 339.821 2.96777 339.821 3.36035C339.821 3.7002 339.97 4.00195 340.269 4.26562C340.568 4.52344 341.078 4.80762 341.799 5.11816C342.519 5.42285 343.079 5.70996 343.477 5.97949C343.882 6.24316 344.213 6.53613 344.47 6.8584C344.728 7.18066 344.919 7.52051 345.042 7.87793C345.171 8.23535 345.235 8.61328 345.235 9.01172C345.235 9.94336 344.895 10.7373 344.216 11.3936C343.542 12.0498 342.724 12.3779 341.763 12.3779C340.826 12.3779 339.997 12.123 339.276 11.6133C338.561 11.0977 338.01 10.3271 337.624 9.30176L339.153 8.87109C339.71 10.1309 340.562 10.7607 341.711 10.7607C342.267 10.7607 342.73 10.5938 343.099 10.2598C343.468 9.92578 343.653 9.50391 343.653 8.99414C343.653 8.68945 343.556 8.38477 343.363 8.08008C343.17 7.76953 342.929 7.51465 342.642 7.31543C342.355 7.11621 341.895 6.89062 341.262 6.63867C340.635 6.38086 340.152 6.14648 339.812 5.93555C339.478 5.71875 339.188 5.46387 338.942 5.1709C338.696 4.87207 338.514 4.57617 338.397 4.2832C338.286 3.99023 338.23 3.67676 338.23 3.34277C338.23 2.54004 338.552 1.85742 339.197 1.29492C339.842 0.726562 340.624 0.442383 341.544 0.442383C342.153 0.442383 342.771 0.574219 343.398 0.837891C344.025 1.10156 344.547 1.50293 344.963 2.04199Z" fill="white"/>
</svg>
