<svg width="12" height="10" viewBox="0 0 12 10" fill="none" xmlns="http://www.w3.org/2000/svg">
<path d="M3.69461 9.38644C7.87162 9.38644 10.1556 5.92522 10.1556 2.92549C10.1556 2.8266 10.1556 2.72771 10.1509 2.63352C10.5935 2.3133 10.9797 1.91302 11.2858 1.45624C10.8808 1.63518 10.4428 1.75762 9.98132 1.81413C10.4522 1.53158 10.8101 1.08892 10.9797 0.556788C10.5417 0.815791 10.0567 1.00416 9.53866 1.10776C9.12426 0.665099 8.53561 0.391968 7.88104 0.391968C6.62841 0.391968 5.61123 1.40914 5.61123 2.66178C5.61123 2.84072 5.63007 3.01496 5.67245 3.17978C3.78408 3.0856 2.11234 2.18144 0.991559 0.806373C0.798484 1.14072 0.685465 1.53158 0.685465 1.94599C0.685465 2.73241 1.08574 3.42937 1.69793 3.83436C1.32591 3.82494 0.977432 3.72134 0.671337 3.55181V3.58006C0.671337 4.682 1.45306 5.59558 2.49378 5.80749C2.30541 5.85929 2.10292 5.88754 1.89572 5.88754C1.74973 5.88754 1.60846 5.87342 1.46718 5.84516C1.75444 6.74932 2.59267 7.40389 3.5863 7.42273C2.80929 8.03021 1.82979 8.39281 0.76552 8.39281C0.581863 8.39281 0.402916 8.38339 0.223969 8.35985C1.2176 9.00971 2.41372 9.38644 3.69461 9.38644Z" fill="#C4C4C4"/>
</svg>
